<svg xmlns="http://www.w3.org/2000/svg" width="1920" height="1080" viewBox="0 0 1920 1080">
  <defs>
    <linearGradient id="bg" x1="0" y1="0" x2="1" y2="1">
      <stop offset="0" stop-color="#07111f"/>
      <stop offset="0.58" stop-color="#214f74"/>
      <stop offset="1" stop-color="#0f1f2b"/>
    </linearGradient>
    <radialGradient id="pulse" cx="58%" cy="42%" r="48%">
      <stop offset="0" stop-color="#f2c75c" stop-opacity="0.9"/>
      <stop offset="0.42" stop-color="#d98c3a" stop-opacity="0.34"/>
      <stop offset="1" stop-color="#d98c3a" stop-opacity="0"/>
    </radialGradient>
  </defs>
  <rect width="1920" height="1080" fill="url(#bg)"/>
  <rect width="1920" height="1080" fill="url(#pulse)"/>
  <path d="M0 750 C 260 610, 430 930, 690 790 S 1120 520, 1390 660 1720 960, 1920 790 L 1920 1080 L 0 1080 Z" fill="#122737" opacity="0.72"/>
  <path d="M0 470 C 210 370, 390 520, 600 420 S 960 220, 1210 320 1560 610, 1920 430" fill="none" stroke="#f0d37a" stroke-width="10" stroke-opacity="0.68"/>
  <path d="M0 520 C 260 450, 480 640, 740 560 S 1140 310, 1420 430 1710 650, 1920 540" fill="none" stroke="#8fd5e8" stroke-width="7" stroke-opacity="0.54"/>
  <circle cx="1130" cy="438" r="92" fill="#fff2bd" opacity="0.18"/>
  <circle cx="1130" cy="438" r="20" fill="#fff7d7" opacity="0.8"/>
  <text x="96" y="964" fill="#e8eef2" font-family="sans-serif" font-size="54" font-weight="700">Shader Demo</text>
</svg>
